<?xml version="1.0" encoding="utf-8"?>
<!-- Generator: Adobe Illustrator 27.5.0, SVG Export Plug-In . SVG Version: 6.00 Build 0)  -->
<svg version="1.1" id="Layer_1" xmlns="http://www.w3.org/2000/svg" xmlns:xlink="http://www.w3.org/1999/xlink" x="0px" y="0px"
	 viewBox="0 0 242.9 188.4" style="enable-background:new 0 0 242.9 188.4;" xml:space="preserve">
<style type="text/css">
	.st0{enable-background:new    ;}
	.st1{fill:#FFD700;}
</style>
<g class="st0">
	<path class="st1" d="M17.1,63.3c0,5.5,3.4,6.4,4.9,6.4c2.9,0,4.6-2.4,4.6-4.5c0-2.5-2-3.2-9.2-6.3c-3.3-1.3-11.5-4.6-11.5-13.5
		C5.9,36,14.5,31,22.3,31c6.5,0,15.6,3.3,15.8,14.6H26.3C26,44,25.6,41,22,41c-2.1,0-4.1,1.5-4.1,3.7c0,2.2,1.3,2.7,9.7,6.5
		c8.8,3.9,11,8,11,13.5c0,7.5-3.9,15.1-16.4,15.1c-12.3,0-17.3-7.2-17-16.5H17.1z"/>
	<path class="st1" d="M48.1,42.4h-9.3V31.9h30.5v10.5h-9.2v36.5h-12V42.4z"/>
	<path class="st1" d="M72.3,31.9h15.4c7.4,0,11.9,1.3,14.5,3.4c3.9,3,5.7,7.7,5.7,12.8c0,3.6-1,6.4-2.4,8.5c-1.6,2.5-3.9,4.1-6.1,5
		l9.7,17.3H96.8L84.5,56.2h2c3,0,5.7-0.3,7.2-1.3c1.5-1,2.7-3.2,2.7-5.8c0-2.5-1.2-4.4-2.8-5.5c-1.3-0.8-3.2-1.3-4.9-1.3h-4.4v36.5
		h-12V31.9z"/>
	<path class="st1" d="M111.9,31.9h26.6v10.5h-14.6v7.3h14.2v10.5h-14.2v8.1h14.6v10.5h-26.6V31.9z"/>
</g>
<g class="st0">
	<path class="st1" d="M152.7,78.9h-13l18.6-47h10.4l18,47h-13.2l-2.2-6.8h-16.5L152.7,78.9z M163,46.2l-5.1,16.4h10.4L163,46.2z"/>
	<path class="st1" d="M187.1,78.9v-47h16.1l8.8,30.3l8.6-30.3h16.1v47h-11.1l0.4-35.2l-10.2,35.2h-7.9l-10.2-35.2l0.4,35.2H187.1z"
		/>
</g>
<g class="st0">
	<path class="st1" d="M8.2,81.8h12v36.5h13.9v10.5H8.2V81.8z"/>
</g>
<g class="st0">
	<path class="st1" d="M38.8,81.8h12v47h-12V81.8z"/>
</g>
<g class="st0">
	<path class="st1" d="M84.5,110.4l-0.3-28.7h11.5v47H85.4l-18-28.3l0.3,28.3H56.1v-47h10.4L84.5,110.4z"/>
	<path class="st1" d="M101.8,81.8h26.6v10.5h-14.6v7.3H128v10.5h-14.2v8.1h14.6v10.5h-26.6V81.8z"/>
</g>
<path class="st1" d="M136.4,88.4c-0.5,0.4-1,0.7-1.4,0.8c-0.4,0.1-1.1,0.2-2.1,0.2c-0.8,0-1.4,0.2-1.9,0.5c-0.5,0.3-0.7,0.8-0.7,1.5
	c0,0.4,0.2,0.8,0.5,1.1s0.8,0.5,1.3,0.5c0.7,0,1.4-0.5,2.1-1.5c0.7-1,1.5-1.8,2.6-2.5l0.3,0.2c0,0.1,0,0.2,0.1,0.3
	c0,0.1,0,0.2,0,0.3c0,0.6-0.2,1.3-0.8,2.2s-0.8,1.6-0.8,2.1s0.2,0.9,0.5,1.3c0.3,0.4,0.8,0.6,1.3,0.6c0.8,0,1.3-0.3,1.6-0.8
	c0.1-0.3,0.2-0.6,0.2-1s-0.2-1.1-0.7-2c-0.4-0.9-0.7-1.9-0.8-3l0.2-0.1c0.9,0.3,1.7,1,2.4,2.2c0.8,1.2,1.5,1.8,2.4,1.8
	c0.5,0,0.9-0.2,1.2-0.5s0.5-0.7,0.5-1.2c0-1.1-0.7-1.7-2.1-1.8c-2.1-0.3-3.4-0.6-4-0.9v-0.3c0.5-0.4,1.6-0.8,3.4-1
	c1.8-0.2,2.6-0.9,2.6-1.9c0-0.5-0.2-0.9-0.5-1.2c-0.3-0.3-0.8-0.5-1.3-0.5c-0.8,0-1.5,0.5-2.2,1.5c-0.7,1-1.5,1.8-2.4,2.4l-0.3-0.2
	c0-1.1,0.2-2.1,0.7-3c0.5-0.9,0.7-1.5,0.7-1.9c0-0.6-0.2-1.1-0.5-1.4c-0.4-0.3-0.8-0.5-1.2-0.5c-0.5,0-0.9,0.1-1.3,0.4
	c-0.4,0.3-0.6,0.7-0.6,1.4c0,0.5,0.2,1.2,0.8,2.1s0.8,1.8,0.8,2.9l-0.2,0.1c-0.9-0.3-1.8-1.2-2.7-2.6c-0.5-0.8-1.2-1.2-2.1-1.2
	c-0.5,0-0.9,0.2-1.2,0.5s-0.5,0.7-0.5,1.1c0,1,0.6,1.6,1.9,1.8c2.2,0.3,3.6,0.7,4.3,1L136.4,88.4L136.4,88.4z"/>
</svg>
