<?xml version="1.0" encoding="UTF-8"?>
<svg id="Layer_2" data-name="Layer 2" xmlns="http://www.w3.org/2000/svg" viewBox="0 0 201.84 219.4">
  <defs>
    <style>
      .cls-1 {
        fill: #fdd700;
      }
    </style>
  </defs>
  <g id="Layer_1-2" data-name="Layer 1">
    <path class="cls-1" d="m88.26,110.94c-7.61,5.71-14.49,9.37-20.49,10.83s-16.25,2.49-30.88,2.93c-10.68.29-19.47,2.93-26.49,7.76-7.03,4.83-10.39,12-10.39,21.22,0,5.85,2.34,11.27,7.17,16.25,4.83,4.83,11.12,7.32,19.17,7.32,9.66,0,19.47-7.32,29.42-21.66,9.95-14.49,22.1-26.49,36.59-35.71l3.81,2.2c.29,2.05.59,3.66.73,4.98s.29,2.93.29,4.83c0,8.2-3.66,18.73-10.98,31.76-7.32,13.03-10.98,22.83-10.98,29.57s2.2,12.59,6.73,18c4.54,5.42,10.68,8.2,18.59,8.2,10.83,0,18.3-3.81,22.54-11.27,2.05-3.95,3.07-8.78,3.07-14.78s-3.22-15.37-9.66-28.1c-6.44-12.73-10.1-26.93-11.27-42.88l3.07-1.76c12.59,3.66,24.15,13.9,34.98,31.03,10.68,16.98,21.95,25.47,33.66,25.47,7.17,0,13.17-2.34,17.86-7.17,4.68-4.68,7.03-10.39,7.03-17.12,0-15.08-9.81-23.71-29.42-26.2-30-3.81-49.18-8.05-57.52-13.03v-3.95c7.32-6.15,23.71-10.98,49.03-14.34s37.91-12.59,37.91-27.37c0-7.03-2.34-12.88-7.03-17.56-4.68-4.83-10.68-7.03-18-7.03-10.98,0-21.22,7.17-31.03,21.37-9.81,14.34-21.37,25.91-34.83,35.13l-4.83-2.49c0-16.25,3.37-30.44,10.1-42.74s10.1-21.22,10.1-27.08c0-9.07-2.63-15.95-7.61-20.64-5.12-4.54-10.83-6.88-17.27-6.88-6.88,0-12.88,2.05-18.15,6-5.27,4.1-7.9,10.54-7.9,19.47,0,7.76,3.66,17.56,10.98,29.57,7.32,12,10.98,25.91,10.98,41.57l-3.51,1.76c-12.73-4.24-25.76-16.83-39.23-37.76-7.61-11.71-17.27-17.42-29.42-17.42-7.03,0-12.88,2.49-17.71,7.61S.29,61.33.29,67.03c0,14.2,9.07,22.83,27.08,25.76,31.91,4.98,52.25,9.66,61.03,13.76v4.39h-.15Z"/>
  </g>
</svg>